<svg width="192" height="64" viewBox="0 0 192 64" fill="none" xmlns="http://www.w3.org/2000/svg">
<mask id="mask0_1_1787" style="mask-type:luminance" maskUnits="userSpaceOnUse" x="0" y="28" width="19" height="24">
<path d="M0 28.4576H18.5164V51.7454H0V28.4576Z" fill="white"/>
</mask>
<g mask="url(#mask0_1_1787)">
<mask id="mask1_1_1787" style="mask-type:luminance" maskUnits="userSpaceOnUse" x="0" y="28" width="19" height="24">
<path d="M13.3798 35.8488C13.3798 32.8831 11.7799 30.4827 8.02341 30.4827H6.49821V41.2468H8.02341C11.7799 41.2468 13.3798 38.8144 13.3798 35.8488ZM18.4699 35.8488C18.4699 40.2263 14.8828 43.1181 9.09671 43.1181H6.49821V48.4842C6.49821 49.7703 6.83109 50.4612 8.06578 50.5571V51.6096H0.0786133V50.5571C1.34559 50.4612 1.67847 49.7703 1.67847 48.4842V31.6729C1.67847 30.3868 1.34559 29.7278 0.0786133 29.6319V28.5795H9.08662C14.8727 28.5795 18.4578 31.5131 18.4578 35.8488" fill="white"/>
</mask>
<g mask="url(#mask1_1_1787)">
<path d="M-5.29004 21.9789H163.433V57.2569H-5.29004V21.9789Z" fill="#E2D8BC"/>
</g>
</g>
<mask id="mask2_1_1787" style="mask-type:luminance" maskUnits="userSpaceOnUse" x="34" y="35" width="18" height="18">
<path d="M34.3857 35.623H51.6472V52.0209H34.3857V35.623Z" fill="white"/>
</mask>
<g mask="url(#mask2_1_1787)">
<mask id="mask3_1_1787" style="mask-type:luminance" maskUnits="userSpaceOnUse" x="34" y="35" width="18" height="17">
<path d="M46.7588 43.8183C46.7588 39.908 45.4272 37.0702 43.0002 37.0702C40.5732 37.0702 39.2114 39.8961 39.2114 43.8183C39.2114 47.7405 40.5732 50.5983 43.0002 50.5983C45.4272 50.5983 46.7588 47.7405 46.7588 43.8183ZM51.6108 43.8183C51.6108 49.1205 47.6162 51.9483 43.0002 51.9483C38.3842 51.9483 34.3896 49.1205 34.3896 43.8183C34.3896 38.5161 38.3842 35.7202 43.0002 35.7202C47.6162 35.7202 51.6108 38.5161 51.6108 43.8183Z" fill="white"/>
</mask>
<g mask="url(#mask3_1_1787)">
<path d="M-5.29004 21.9785H163.433V57.2566H-5.29004V21.9785Z" fill="#E2D8BC"/>
</g>
</g>
<mask id="mask4_1_1787" style="mask-type:luminance" maskUnits="userSpaceOnUse" x="52" y="35" width="20" height="17">
<path d="M52.3433 35.623H71.4144V51.7453H52.3433V35.623Z" fill="white"/>
</mask>
<g mask="url(#mask4_1_1787)">
<mask id="mask5_1_1787" style="mask-type:luminance" maskUnits="userSpaceOnUse" x="52" y="35" width="20" height="17">
<path d="M71.2995 50.5567V51.6092H63.4515V50.5567C64.6761 50.4609 65.009 49.7699 65.009 48.4838V41.512C65.009 39.0477 64.1496 37.4001 61.9485 37.4001C59.8564 37.4001 58.7286 39.2074 58.7286 41.4162V48.4938C58.7286 49.7799 59.0615 50.4708 60.2962 50.5667V51.6191H52.4482V50.5667C53.6829 50.4708 54.0158 49.7799 54.0158 48.4938V40.0682C54.0158 38.782 53.6829 38.123 52.4482 38.0272V36.9647L57.6977 35.7106H58.5249V38.0471C59.7273 36.4655 61.4885 35.7106 63.5161 35.7106C67.9081 35.7106 69.7339 38.3766 69.7339 42.0333V48.4838C69.7339 49.7699 70.0648 50.4609 71.2995 50.5567Z" fill="white"/>
</mask>
<g mask="url(#mask5_1_1787)">
<path d="M-5.28955 21.9784H163.434V57.2564H-5.28955V21.9784Z" fill="#E2D8BC"/>
</g>
</g>
<mask id="mask6_1_1787" style="mask-type:luminance" maskUnits="userSpaceOnUse" x="19" y="35" width="6" height="7">
<path d="M19.3516 35.7612H24.2238V41.1353H19.3516V35.7612Z" fill="white"/>
</mask>
<g mask="url(#mask6_1_1787)">
<mask id="mask7_1_1787" style="mask-type:luminance" maskUnits="userSpaceOnUse" x="19" y="35" width="6" height="7">
<path d="M24.1369 35.8073L24.1813 35.7754C22.2587 35.9232 20.3683 36.4863 19.6279 38.092C18.9944 39.442 19.4988 40.5244 20.6265 40.9178C21.7866 41.2793 23.2795 40.6961 23.1181 38.6332C23.0858 38.112 23.0636 36.1688 24.1369 35.7954" fill="white"/>
</mask>
<g mask="url(#mask7_1_1787)">
<path d="M-5.29004 21.9795H163.433V57.2575H-5.29004V21.9795Z" fill="#E2D8BC"/>
</g>
</g>
<mask id="mask8_1_1787" style="mask-type:luminance" maskUnits="userSpaceOnUse" x="17" y="35" width="17" height="18">
<path d="M17.54 35.623H33.8916V52.0209H17.54V35.623Z" fill="white"/>
</mask>
<g mask="url(#mask8_1_1787)">
<mask id="mask9_1_1787" style="mask-type:luminance" maskUnits="userSpaceOnUse" x="17" y="35" width="17" height="17">
<path d="M22.3234 47.1976C22.388 45.0947 23.3866 43.8405 25.7793 43.5529L27.1431 43.3512L27.6051 45.8795C27.6051 48.1222 26.778 50.1632 24.9098 50.2271C23.4512 50.2591 22.2487 49.3764 22.3133 47.1976M32.2978 48.8871V41.1625C32.0718 37.1344 28.7652 35.8902 25.8883 35.7424H25.856L25.9084 35.7944C27.7887 36.3695 27.5829 40.3117 27.5829 40.3117H27.5729L27.5829 40.6193V42.139C26.7578 42.2449 25.5554 42.3307 24.0302 42.4685C20.8103 42.7661 17.546 43.9244 17.6529 47.8366C17.7276 50.1532 19.4243 51.3315 21.464 51.7469L22.741 51.9386H33.8432V50.8861C32.6407 50.7903 32.2978 50.1213 32.2857 48.8871" fill="white"/>
</mask>
<g mask="url(#mask9_1_1787)">
<path d="M-5.28955 21.9784H163.434V57.2564H-5.28955V21.9784Z" fill="#E2D8BC"/>
</g>
</g>
<mask id="mask10_1_1787" style="mask-type:luminance" maskUnits="userSpaceOnUse" x="77" y="7" width="29" height="57">
<path d="M77.8174 7.16541H105.274V64H77.8174V7.16541Z" fill="white"/>
</mask>
<g mask="url(#mask10_1_1787)">
<mask id="mask11_1_1787" style="mask-type:luminance" maskUnits="userSpaceOnUse" x="77" y="7" width="29" height="57">
<path d="M95.5295 17.1644C93.0756 17.1644 91.0789 15.1892 91.0789 12.7589C91.0789 10.3298 93.0756 8.3546 95.5295 8.3546C96.1239 8.3546 96.6942 8.47027 97.2124 8.68275L97.3064 8.71921C98.9004 9.42707 99.9851 10.9685 99.9851 12.7589C99.9851 15.1892 97.9885 17.1644 95.5345 17.1644M102.593 27.5673C99.8302 24.2908 96.1696 21.7825 92.1077 20.4082C91.4764 18.9787 91.0929 17.475 90.9582 15.9197C91.968 17.3455 93.6408 18.2847 95.5295 18.2847C96.2636 18.2847 96.9647 18.1414 97.61 17.8861C100.494 20.3718 102.266 23.8281 102.598 27.5673M87.9607 43.3978C85.329 43.3978 82.8141 42.7227 80.5888 41.4352L81.0244 41.449C85.8434 41.449 90.2851 39.802 93.7487 36.8134C96.9139 34.0775 99.0681 30.3987 99.8962 26.364C100.901 27.3032 101.822 28.3405 102.635 29.4507C102.322 37.1969 95.8572 43.4029 87.9569 43.4029M97.9694 47.6739C96.2966 46.531 94.8055 45.1052 93.5849 43.4946C95.1878 42.8886 96.665 42.0324 97.9694 40.9775V47.6739ZM97.9694 52.3057C94.4638 50.4688 91.5184 47.7795 89.3871 44.4577L92.4583 43.8743C93.9405 45.9099 95.833 47.6739 97.9694 49.0154V52.3057ZM97.9694 56.7062C92.2195 54.2306 87.4374 49.7371 84.6329 44.1799C85.7125 44.4062 86.8252 44.5218 87.9607 44.5218H88.0598C90.4667 48.4232 93.8707 51.5375 97.9745 53.5592L97.9694 56.7062ZM97.9694 60.9873C89.1864 57.785 82.3556 50.802 79.4012 42.0374C80.5888 42.7956 81.8602 43.389 83.1926 43.8052C86.1101 50.1495 91.4676 55.2667 97.9694 57.9283V60.9873ZM97.9694 62.8519H92.3694C86.909 59.9916 82.3048 55.7394 79.0367 50.538V44.2867C82.4546 52.6062 89.3261 59.1492 97.9694 62.1755V62.8519ZM79.0367 62.8519V52.5836C81.9453 56.744 85.7075 60.2418 90.0691 62.8519H79.0367ZM79.0367 33.6425C85.0914 32.0093 89.9993 27.4466 92.0328 21.57C94.5337 22.4589 96.8707 23.7954 98.9042 25.489C98.2361 29.5387 96.1468 33.2502 93.0006 35.966C89.7427 38.7798 85.5677 40.33 81.2391 40.33L79.0329 40.1955L79.0367 33.6425ZM79.0367 16.2994H89.8545C90.0234 17.8773 90.4298 19.4087 91.0751 20.8709C89.2651 26.4608 84.7079 30.8387 79.0367 32.477V16.2994ZM103.388 13.5045C102.738 13.7081 101.761 14.0275 100.873 14.3644L101.112 12.7589C101.112 12.0473 100.976 11.3708 100.728 10.746C101.728 11.5418 102.626 12.4672 103.388 13.5045ZM100.12 15.8971C101.541 15.2068 104.42 14.3607 104.453 14.3506L105.183 14.1381L104.767 13.5095C103.06 10.927 100.658 8.93295 97.8106 7.71967L97.6989 7.67315L97.6011 7.63165L97.5769 7.62788C96.9419 7.37768 96.2496 7.23938 95.5244 7.23938C92.7529 7.23938 90.4476 9.24727 90.0183 11.8712L89.7656 14.6612C89.7656 14.8372 89.7706 15.0132 89.7745 15.1842H77.9062V63.9709H99.1062V39.9642C101.994 37.1227 103.785 33.1936 103.785 28.8535C103.785 24.4442 101.934 20.2888 98.6705 17.3216C99.237 16.9381 99.7273 16.4516 100.12 15.8971Z" fill="white"/>
</mask>
<g mask="url(#mask11_1_1787)">
<path d="M75.5679 -2.22388H107.521V66.3475H75.5679V-2.22388Z" fill="#E2D8BC"/>
</g>
</g>
<mask id="mask12_1_1787" style="mask-type:luminance" maskUnits="userSpaceOnUse" x="83" y="0" width="7" height="7">
<path d="M83.4312 0.740234H89.5469V6.91856H83.4312V0.740234Z" fill="white"/>
</mask>
<g mask="url(#mask12_1_1787)">
<mask id="mask13_1_1787" style="mask-type:luminance" maskUnits="userSpaceOnUse" x="83" y="0" width="7" height="7">
<path d="M84.9831 4.3048C84.4217 3.74908 84.4217 2.84257 84.9831 2.28685C85.2638 2.01024 85.6334 1.87068 86.0018 1.87068C86.3714 1.87068 86.741 2.01024 87.0217 2.28685C87.39 2.65272 87.8295 4.11998 88.1153 5.38733C86.8388 5.10569 85.3527 4.67067 84.9831 4.3048ZM89.3956 6.0034C89.2838 5.40116 88.6856 2.3472 87.8206 1.49601C86.8159 0.501493 85.1838 0.501493 84.1842 1.49601C83.1833 2.49053 83.1782 4.10615 84.1842 5.09564C85.0479 5.95185 88.1293 6.54404 88.7364 6.65593L89.5455 6.8043L89.3956 6.0034Z" fill="white"/>
</mask>
<g mask="url(#mask13_1_1787)">
<path d="M75.5674 -2.22449H107.52V66.3469H75.5674V-2.22449Z" fill="#E2D8BC"/>
</g>
</g>
<mask id="mask14_1_1787" style="mask-type:luminance" maskUnits="userSpaceOnUse" x="89" y="0" width="7" height="8">
<path d="M89.6729 0H95.0392V7.65942H89.6729V0Z" fill="white"/>
</mask>
<g mask="url(#mask14_1_1787)">
<mask id="mask15_1_1787" style="mask-type:luminance" maskUnits="userSpaceOnUse" x="89" y="0" width="6" height="8">
<path d="M92.3413 5.59102C91.6402 4.49969 90.9009 3.15313 90.9009 2.63387C90.9009 1.84806 91.5462 1.20936 92.3413 1.20936C93.1364 1.20936 93.7816 1.84806 93.7816 2.63387C93.7816 3.15313 93.0424 4.49466 92.3413 5.59102ZM92.3413 0.0891113C90.92 0.0891113 89.7705 1.23199 89.7705 2.6389C89.7705 3.85093 91.5233 6.4246 91.8789 6.92877L92.3464 7.59514L92.8138 6.92877C93.1643 6.4246 94.9222 3.84715 94.9222 2.6389C94.9222 1.23199 93.7676 0.0891113 92.3502 0.0891113" fill="white"/>
</mask>
<g mask="url(#mask15_1_1787)">
<path d="M75.5679 -2.22437H107.521V66.3471H75.5679V-2.22437Z" fill="#E2D8BC"/>
</g>
</g>
<mask id="mask16_1_1787" style="mask-type:luminance" maskUnits="userSpaceOnUse" x="82" y="6" width="9" height="7">
<path d="M82.6948 6.91858H90.4211V12.1891H82.6948V6.91858Z" fill="white"/>
</mask>
<g mask="url(#mask16_1_1787)">
<mask id="mask17_1_1787" style="mask-type:luminance" maskUnits="userSpaceOnUse" x="82" y="7" width="9" height="6">
<path d="M85.3291 11.0048C84.5352 11.0048 83.89 10.3674 83.89 9.5803C83.89 8.79324 84.5352 8.15454 85.3291 8.15454C85.8524 8.15454 87.2089 8.88628 88.3164 9.5803C87.214 10.2743 85.8524 11.0048 85.3291 11.0048ZM89.6628 9.11762C89.1535 8.77061 86.5497 7.03052 85.3291 7.03052C83.9078 7.03052 82.7583 8.1734 82.7583 9.57527C82.7583 10.9772 83.9129 12.12 85.3291 12.12C86.5548 12.12 89.1535 10.385 89.6628 10.0342L90.336 9.57025L89.6628 9.11762Z" fill="white"/>
</mask>
<g mask="url(#mask17_1_1787)">
<path d="M75.5679 -2.22437H107.521V66.3471H75.5679V-2.22437Z" fill="#E2D8BC"/>
</g>
</g>
<mask id="mask18_1_1787" style="mask-type:luminance" maskUnits="userSpaceOnUse" x="93" y="10" width="5" height="6">
<path d="M93.167 10.3777H97.9097V15.0862H93.167V10.3777Z" fill="white"/>
</mask>
<g mask="url(#mask18_1_1787)">
<mask id="mask19_1_1787" style="mask-type:luminance" maskUnits="userSpaceOnUse" x="93" y="10" width="5" height="6">
<path d="M95.5292 13.9538C94.8661 13.9538 94.3238 13.4169 94.3238 12.7594C94.3238 12.1031 94.8661 11.5662 95.5292 11.5662C96.1934 11.5662 96.7358 12.1031 96.7358 12.7594C96.7358 13.4169 96.1934 13.9538 95.5292 13.9538ZM95.5292 10.4409C94.2387 10.4409 93.187 11.4832 93.187 12.7594C93.187 14.0368 94.2349 15.0778 95.5292 15.0778C96.8247 15.0778 97.8713 14.0368 97.8713 12.7594C97.8713 11.4832 96.8196 10.4409 95.5292 10.4409Z" fill="white"/>
</mask>
<g mask="url(#mask19_1_1787)">
<path d="M75.5679 -2.22388H107.521V66.3475H75.5679V-2.22388Z" fill="#E2D8BC"/>
</g>
</g>
<mask id="mask20_1_1787" style="mask-type:luminance" maskUnits="userSpaceOnUse" x="111" y="29" width="22" height="24">
<path d="M111.676 29.0776H132V52.3653H111.676V29.0776Z" fill="white"/>
</mask>
<g mask="url(#mask20_1_1787)">
<mask id="mask21_1_1787" style="mask-type:luminance" maskUnits="userSpaceOnUse" x="111" y="29" width="21" height="24">
<path d="M126.628 45.7892C126.628 42.8555 124.804 41.2838 121.239 41.2838H118.191V50.3365H121.249C124.804 50.3365 126.64 48.7548 126.64 45.7991M119.855 31.0708H118.191V39.2628H119.855C123.408 39.2628 124.675 37.713 124.675 35.1828C124.675 32.6545 123.408 31.0708 119.855 31.0708ZM131.922 45.7892C131.653 49.997 127.862 52.2397 122.345 52.2397H111.801V51.1872C113.036 51.0914 113.369 50.4004 113.369 49.1143V32.293C113.369 31.0069 113.036 30.3479 111.801 30.2201V29.1996H120.38C125.899 29.1996 129.688 31.0808 129.527 35.1928C129.462 37.4035 128.066 39.1789 125.803 39.8379C129.559 40.2313 132.115 42.3342 131.922 45.7991" fill="white"/>
</mask>
<g mask="url(#mask21_1_1787)">
<path d="M28.5664 22.599H197.29V57.8771H28.5664V22.599Z" fill="#E2D8BC"/>
</g>
</g>
<mask id="mask22_1_1787" style="mask-type:luminance" maskUnits="userSpaceOnUse" x="132" y="27" width="9" height="26">
<path d="M132.279 27.8375H140.214V52.3654H132.279V27.8375Z" fill="white"/>
</mask>
<g mask="url(#mask22_1_1787)">
<mask id="mask23_1_1787" style="mask-type:luminance" maskUnits="userSpaceOnUse" x="132" y="27" width="9" height="26">
<path d="M140.167 51.1773V52.2298H132.287V51.1773C133.554 51.0815 133.886 50.3905 133.886 49.1044V32.2931C133.886 31.007 133.554 30.348 132.287 30.2521V29.1997L137.772 27.9136H138.599V49.1044C138.599 50.3905 138.9 51.0815 140.167 51.1773Z" fill="white"/>
</mask>
<g mask="url(#mask23_1_1787)">
<path d="M28.5664 22.5988H197.29V57.8768H28.5664V22.5988Z" fill="#E2D8BC"/>
</g>
</g>
<mask id="mask24_1_1787" style="mask-type:luminance" maskUnits="userSpaceOnUse" x="157" y="36" width="20" height="17">
<path d="M157.475 36.243H176.548V52.3653H157.475V36.243Z" fill="white"/>
</mask>
<g mask="url(#mask24_1_1787)">
<mask id="mask25_1_1787" style="mask-type:luminance" maskUnits="userSpaceOnUse" x="157" y="36" width="20" height="17">
<path d="M176.443 51.1768V52.2293H168.595V51.1768C169.83 51.081 170.163 50.39 170.163 49.1039V42.1321C170.163 39.6678 169.303 38.0202 167.102 38.0202C165.01 38.0202 163.882 39.8275 163.882 42.0363V49.1139C163.882 50.4 164.215 51.091 165.45 51.1868V52.2393H157.602V51.1868C158.837 51.091 159.17 50.4 159.17 49.1139V40.6883C159.17 39.4022 158.837 38.7431 157.602 38.6473V37.5848L162.852 36.3307H163.679V38.6672C164.881 37.0856 166.642 36.3307 168.67 36.3307C173.062 36.3307 174.886 38.9968 174.886 42.6534V49.1039C174.886 50.39 175.219 51.081 176.453 51.1768" fill="white"/>
</mask>
<g mask="url(#mask25_1_1787)">
<path d="M28.5664 22.5985H197.29V57.8766H28.5664V22.5985Z" fill="#E2D8BC"/>
</g>
</g>
<mask id="mask26_1_1787" style="mask-type:luminance" maskUnits="userSpaceOnUse" x="186" y="36" width="6" height="7">
<path d="M186.292 36.3807H191.701V42.8572H186.292V36.3807Z" fill="white"/>
</mask>
<g mask="url(#mask26_1_1787)">
<mask id="mask27_1_1787" style="mask-type:luminance" maskUnits="userSpaceOnUse" x="186" y="36" width="6" height="7">
<path d="M187.394 39.6238L187.384 39.6358V39.9334C187.2 42.2599 188.962 43.0887 190.293 42.5895C191.925 42.0263 191.99 40.1251 191.195 38.839C190.378 37.5309 188.725 36.6482 186.47 36.4146L186.341 36.5224C187.62 37.4251 187.394 39.6238 187.394 39.6238Z" fill="white"/>
</mask>
<g mask="url(#mask27_1_1787)">
<path d="M28.5664 22.5989H197.29V57.8769H28.5664V22.5989Z" fill="#E2D8BC"/>
</g>
</g>
<mask id="mask28_1_1787" style="mask-type:luminance" maskUnits="userSpaceOnUse" x="176" y="36" width="16" height="17">
<path d="M176.724 36.3807H192V52.6408H176.724V36.3807Z" fill="white"/>
</mask>
<g mask="url(#mask28_1_1787)">
<mask id="mask29_1_1787" style="mask-type:luminance" maskUnits="userSpaceOnUse" x="176" y="36" width="16" height="17">
<path d="M191.334 48.0194C188.607 51.0809 181.994 50.7514 181.425 44.2051L181.554 41.4531L181.608 41.2075L181.705 40.846C182.068 39.5819 182.928 37.3292 184.314 36.5423L184.356 36.3826C179.944 36.7341 176.776 39.5399 176.776 44.215C176.776 49.7409 180.866 52.5787 185.258 52.5787C188.351 52.5787 190.766 50.7734 191.936 48.5946L191.946 48.5187L191.334 48.0194Z" fill="white"/>
</mask>
<g mask="url(#mask29_1_1787)">
<path d="M28.5669 22.5985H197.29V57.8766H28.5669V22.5985Z" fill="#E2D8BC"/>
</g>
</g>
<mask id="mask30_1_1787" style="mask-type:luminance" maskUnits="userSpaceOnUse" x="141" y="36" width="6" height="6">
<path d="M141.605 36.3807H146.617V41.7548H141.605V36.3807Z" fill="white"/>
</mask>
<g mask="url(#mask30_1_1787)">
<mask id="mask31_1_1787" style="mask-type:luminance" maskUnits="userSpaceOnUse" x="141" y="36" width="6" height="6">
<path d="M146.49 36.4264L146.532 36.3944C144.612 36.5422 142.721 37.1054 141.981 38.711C141.347 40.061 141.852 41.1434 142.98 41.5368C144.14 41.8983 145.631 41.3152 145.471 39.2522C145.439 38.731 145.417 36.7878 146.49 36.4144" fill="white"/>
</mask>
<g mask="url(#mask31_1_1787)">
<path d="M28.5669 22.5985H197.29V57.8766H28.5669V22.5985Z" fill="#E2D8BC"/>
</g>
</g>
<mask id="mask32_1_1787" style="mask-type:luminance" maskUnits="userSpaceOnUse" x="139" y="36" width="18" height="17">
<path d="M139.935 36.243H156.222V52.6409H139.935V36.243Z" fill="white"/>
</mask>
<g mask="url(#mask32_1_1787)">
<mask id="mask33_1_1787" style="mask-type:luminance" maskUnits="userSpaceOnUse" x="140" y="36" width="17" height="17">
<path d="M144.676 47.8176C144.74 45.7147 145.739 44.4605 148.132 44.1729L149.496 43.9712L149.958 46.4995C149.958 48.7422 149.131 50.7832 147.262 50.8471C145.804 50.8791 144.601 49.9964 144.664 47.8176M154.648 49.5071V41.7824C154.424 37.7544 151.118 36.5102 148.241 36.3624H148.209L148.261 36.4144C150.139 36.9895 149.935 40.9317 149.935 40.9317H149.925L149.935 41.2392V42.759C149.11 42.8649 147.908 42.9507 146.383 43.0885C143.161 43.3861 139.899 44.5444 140.005 48.4566C140.08 50.7732 141.777 51.9515 143.816 52.3669L145.094 52.5586H156.196V51.5061C154.993 51.4103 154.648 50.7413 154.638 49.5071" fill="white"/>
</mask>
<g mask="url(#mask33_1_1787)">
<path d="M28.5664 22.5984H197.29V57.8764H28.5664V22.5984Z" fill="#E2D8BC"/>
</g>
</g>
</svg>
