<svg width="272" height="638" viewBox="0 0 272 638" fill="none" xmlns="http://www.w3.org/2000/svg">
<mask id="mask0_1_164" style="mask-type:luminance" maskUnits="userSpaceOnUse" x="0" y="71" width="272" height="567">
<path d="M0.695801 71.6525H271.392V637.714H0.695801V71.6525Z" fill="white"/>
</mask>
<g mask="url(#mask0_1_164)">
<mask id="mask1_1_164" style="mask-type:luminance" maskUnits="userSpaceOnUse" x="1" y="72" width="270" height="566">
<path d="M175.321 171.241C151.128 171.241 131.442 151.568 131.442 127.363C131.442 103.169 151.128 83.4966 175.321 83.4966C181.181 83.4966 186.804 84.6487 191.913 86.765L192.84 87.1281C208.555 94.1782 219.249 109.531 219.249 127.363C219.249 151.568 199.564 171.241 175.371 171.241M244.958 274.851C217.722 242.218 181.632 217.236 141.585 203.549C135.362 189.311 131.58 174.334 130.253 158.844C140.208 173.044 156.7 182.398 175.321 182.398C182.559 182.398 189.471 180.971 195.832 178.429C224.271 203.186 241.739 237.61 245.008 274.851M100.7 432.52C74.7535 432.52 49.9592 425.796 28.02 412.973L32.3152 413.111C79.8251 413.111 123.616 396.706 157.764 366.941C188.97 339.692 210.208 303.052 218.373 262.867C228.278 272.221 237.357 282.552 245.371 293.61C242.29 370.76 178.552 432.571 100.662 432.571M199.376 475.109C182.884 463.726 168.183 449.526 156.149 433.485C171.952 427.449 186.516 418.921 199.376 408.415V475.109ZM199.376 521.241C164.815 502.946 135.775 476.161 114.763 443.077L145.042 437.266C159.655 457.54 178.314 475.109 199.376 488.47V521.241ZM199.376 565.07C142.687 540.413 95.5407 495.658 67.8913 440.309C78.5353 442.563 89.5049 443.715 100.7 443.715H101.677C125.407 482.572 158.967 513.59 199.426 533.726L199.376 565.07ZM199.376 607.709C112.784 575.814 45.4387 506.265 16.3116 418.971C28.02 426.522 40.5549 432.433 53.6909 436.578C82.4548 499.766 135.274 550.732 199.376 577.242V607.709ZM199.376 626.279H144.165C90.3314 597.791 44.9378 555.44 12.7177 503.635V441.374C46.4154 524.234 114.161 589.401 199.376 619.542V626.279ZM12.7177 626.279V524.009C41.3939 565.445 78.4852 600.283 121.487 626.279H12.7177ZM12.7177 335.359C72.4119 319.093 120.798 273.649 140.847 215.119C165.503 223.973 188.544 237.284 208.593 254.152C202.006 294.486 181.407 331.452 150.389 358.501C118.269 386.526 77.1078 401.966 34.4315 401.966L12.6801 400.626L12.7177 335.359ZM12.7177 162.626H119.371C121.036 178.341 125.043 193.593 131.405 208.157C113.56 263.831 68.6301 307.434 12.7177 323.751V162.626ZM252.797 134.788C246.385 136.817 236.756 139.998 228.002 143.354L230.357 127.363C230.357 120.275 229.017 113.538 226.575 107.314C236.43 115.241 245.283 124.457 252.797 134.788ZM220.577 158.618C234.589 151.744 262.977 143.316 263.303 143.216L270.491 141.1L266.396 134.838C249.566 109.117 225.886 89.2569 197.811 77.1728L196.709 76.7095L195.745 76.2963L195.507 76.2587C189.246 73.7667 182.421 72.3893 175.271 72.3893C147.947 72.3893 125.219 92.3875 120.986 118.522L118.494 146.309C118.494 148.062 118.544 149.815 118.582 151.518H1.57275V637.424H210.584V398.322C239.06 370.021 256.716 330.889 256.716 287.662C256.716 243.746 238.459 202.359 206.289 172.806C211.874 168.987 216.707 164.141 220.577 158.618Z" fill="white"/>
</mask>
<g mask="url(#mask1_1_164)">
<path d="M-21.481 -21.8633H293.545V661.095H-21.481V-21.8633Z" fill="#E2D8BC"/>
</g>
</g>
<mask id="mask2_1_164" style="mask-type:luminance" maskUnits="userSpaceOnUse" x="56" y="7" width="61" height="63">
<path d="M56.0439 7.65845H116.339V69.1934H56.0439V7.65845Z" fill="white"/>
</mask>
<g mask="url(#mask2_1_164)">
<mask id="mask3_1_164" style="mask-type:luminance" maskUnits="userSpaceOnUse" x="56" y="7" width="61" height="62">
<path d="M71.3459 43.1607C65.811 37.6258 65.811 28.5972 71.3459 23.0623C74.1134 20.3074 77.7574 18.9174 81.3889 18.9174C85.0329 18.9174 88.6769 20.3074 91.4443 23.0623C95.0758 26.7063 99.4086 41.3199 102.226 53.9425C89.6411 51.1375 74.9899 46.8048 71.3459 43.1607ZM114.849 60.0785C113.747 54.0803 107.849 23.6634 99.3209 15.1857C89.4157 5.28054 73.3244 5.28054 63.4693 15.1857C53.6017 25.0909 53.5516 41.1822 63.4693 51.0373C71.9845 59.5651 102.364 65.4631 108.35 66.5776L116.326 68.0552L114.849 60.0785Z" fill="white"/>
</mask>
<g mask="url(#mask3_1_164)">
<path d="M-21.4829 -21.8701H293.543V661.088H-21.4829V-21.8701Z" fill="#E2D8BC"/>
</g>
</g>
<mask id="mask4_1_164" style="mask-type:luminance" maskUnits="userSpaceOnUse" x="117" y="0" width="54" height="77">
<path d="M117.58 0.285645H170.487V76.572H117.58V0.285645Z" fill="white"/>
</mask>
<g mask="url(#mask4_1_164)">
<mask id="mask5_1_164" style="mask-type:luminance" maskUnits="userSpaceOnUse" x="118" y="1" width="52" height="75">
<path d="M143.89 55.9713C136.978 45.1018 129.69 31.6904 129.69 26.5186C129.69 18.6922 136.051 12.3308 143.89 12.3308C151.729 12.3308 158.09 18.6922 158.09 26.5186C158.09 31.6904 150.802 45.0518 143.89 55.9713ZM143.89 1.17334C129.877 1.17334 118.545 12.5562 118.545 26.5687C118.545 38.6403 135.826 64.2736 139.332 69.2951L143.94 75.9319L148.548 69.2951C152.004 64.2736 169.335 38.6027 169.335 26.5687C169.335 12.5562 157.953 1.17334 143.978 1.17334" fill="white"/>
</mask>
<g mask="url(#mask5_1_164)">
<path d="M-21.481 -21.8696H293.545V661.089H-21.481V-21.8696Z" fill="#E2D8BC"/>
</g>
</g>
<mask id="mask6_1_164" style="mask-type:luminance" maskUnits="userSpaceOnUse" x="48" y="69" width="77" height="53">
<path d="M48.7822 69.1929H124.956V121.687H48.7822V69.1929Z" fill="white"/>
</mask>
<g mask="url(#mask6_1_164)">
<mask id="mask7_1_164" style="mask-type:luminance" maskUnits="userSpaceOnUse" x="49" y="70" width="76" height="51">
<path d="M74.7535 109.892C66.927 109.892 60.5656 103.543 60.5656 95.7041C60.5656 87.8651 66.927 81.5037 74.7535 81.5037C79.9127 81.5037 93.2866 88.7917 104.206 95.7041C93.3367 102.616 79.9127 109.892 74.7535 109.892ZM117.48 91.0959C112.458 87.6397 86.7875 70.3087 74.7535 70.3087C60.741 70.3087 49.4082 81.6916 49.4082 95.654C49.4082 109.616 60.791 120.999 74.7535 120.999C86.8376 120.999 112.458 103.718 117.48 100.225L124.117 95.6039L117.48 91.0959Z" fill="white"/>
</mask>
<g mask="url(#mask7_1_164)">
<path d="M-21.481 -21.8696H293.545V661.089H-21.481V-21.8696Z" fill="#E2D8BC"/>
</g>
</g>
<mask id="mask8_1_164" style="mask-type:luminance" maskUnits="userSpaceOnUse" x="152" y="103" width="47" height="48">
<path d="M152.029 103.646H198.788V150.543H152.029V103.646Z" fill="white"/>
</mask>
<g mask="url(#mask8_1_164)">
<mask id="mask9_1_164" style="mask-type:luminance" maskUnits="userSpaceOnUse" x="152" y="104" width="47" height="47">
<path d="M175.321 139.263C168.784 139.263 163.437 133.916 163.437 127.367C163.437 120.83 168.784 115.483 175.321 115.483C181.87 115.483 187.217 120.83 187.217 127.367C187.217 133.916 181.87 139.263 175.321 139.263ZM175.321 104.275C162.598 104.275 152.229 114.656 152.229 127.367C152.229 140.089 162.56 150.458 175.321 150.458C188.093 150.458 198.412 140.089 198.412 127.367C198.412 114.656 188.043 104.275 175.321 104.275Z" fill="white"/>
</mask>
<g mask="url(#mask9_1_164)">
<path d="M-21.481 -21.8635H293.545V661.095H-21.481V-21.8635Z" fill="#E2D8BC"/>
</g>
</g>
</svg>
